<svg width="73" height="21" viewBox="0 0 73 21" fill="none" xmlns="http://www.w3.org/2000/svg">
<path d="M0.908114 20V1.09091H4.90598V16.7038H13.0125V20H0.908114ZM32.3002 10.5455C32.3002 12.6075 31.9093 14.3617 31.1276 15.8082C30.352 17.2547 29.2933 18.3596 27.9514 19.1229C26.6157 19.88 25.1138 20.2585 23.4458 20.2585C21.7654 20.2585 20.2573 19.8769 18.9216 19.1136C17.5859 18.3504 16.5303 17.2455 15.7547 15.799C14.9791 14.3525 14.5914 12.6013 14.5914 10.5455C14.5914 8.48343 14.9791 6.72917 15.7547 5.28267C16.5303 3.83617 17.5859 2.73437 18.9216 1.97727C20.2573 1.21401 21.7654 0.832386 23.4458 0.832386C25.1138 0.832386 26.6157 1.21401 27.9514 1.97727C29.2933 2.73437 30.352 3.83617 31.1276 5.28267C31.9093 6.72917 32.3002 8.48343 32.3002 10.5455ZM28.2469 10.5455C28.2469 9.20975 28.0468 8.08333 27.6468 7.16619C27.2528 6.24905 26.6958 5.5535 25.9756 5.07955C25.2554 4.60559 24.4121 4.36861 23.4458 4.36861C22.4794 4.36861 21.6361 4.60559 20.9159 5.07955C20.1958 5.5535 19.6356 6.24905 19.2355 7.16619C18.8416 8.08333 18.6446 9.20975 18.6446 10.5455C18.6446 11.8812 18.8416 13.0076 19.2355 13.9247C19.6356 14.8419 20.1958 15.5374 20.9159 16.0114C21.6361 16.4853 22.4794 16.7223 23.4458 16.7223C24.4121 16.7223 25.2554 16.4853 25.9756 16.0114C26.6958 15.5374 27.2528 14.8419 27.6468 13.9247C28.0468 13.0076 28.2469 11.8812 28.2469 10.5455ZM47.8 7.20312C47.6707 6.75379 47.4891 6.35677 47.2552 6.01207C47.0213 5.66122 46.7351 5.36577 46.3966 5.12571C46.0642 4.8795 45.6826 4.69176 45.2517 4.5625C44.827 4.43324 44.3561 4.36861 43.839 4.36861C42.8727 4.36861 42.0232 4.60866 41.2907 5.08878C40.5644 5.56889 39.9981 6.26752 39.5919 7.18466C39.1856 8.09564 38.9825 9.20975 38.9825 10.527C38.9825 11.8442 39.1826 12.9645 39.5827 13.8878C39.9827 14.8111 40.549 15.5159 41.2815 16.0021C42.014 16.4822 42.8788 16.7223 43.876 16.7223C44.7808 16.7223 45.5533 16.5623 46.1934 16.2422C46.8398 15.916 47.3322 15.4574 47.6707 14.8665C48.0154 14.2756 48.1878 13.5769 48.1878 12.7706L49.0003 12.8906H44.1253V9.88068H52.0379V12.2628C52.0379 13.9247 51.6871 15.3527 50.9854 16.5469C50.2836 17.7348 49.3173 18.652 48.0862 19.2983C46.8551 19.9384 45.4456 20.2585 43.8575 20.2585C42.0848 20.2585 40.5275 19.8677 39.1856 19.0859C37.8438 18.2981 36.7974 17.1809 36.0464 15.7344C35.3016 14.2817 34.9292 12.5582 34.9292 10.5639C34.9292 9.03125 35.1508 7.66477 35.594 6.46449C36.0434 5.25805 36.6712 4.23627 37.4775 3.39915C38.2839 2.56203 39.2226 1.92495 40.2936 1.48793C41.3646 1.0509 42.5249 0.832386 43.7744 0.832386C44.8454 0.832386 45.8426 0.989346 46.7659 1.30327C47.6892 1.61103 48.5078 2.04806 49.2219 2.61435C49.942 3.18063 50.5299 3.85464 50.9854 4.63636C51.4408 5.41193 51.7332 6.26752 51.8625 7.20312H47.8ZM72.4173 10.5455C72.4173 12.6075 72.0265 14.3617 71.2448 15.8082C70.4692 17.2547 69.4105 18.3596 68.0686 19.1229C66.7329 19.88 65.231 20.2585 63.5629 20.2585C61.8825 20.2585 60.3745 19.8769 59.0388 19.1136C57.7031 18.3504 56.6475 17.2455 55.8719 15.799C55.0963 14.3525 54.7085 12.6013 54.7085 10.5455C54.7085 8.48343 55.0963 6.72917 55.8719 5.28267C56.6475 3.83617 57.7031 2.73437 59.0388 1.97727C60.3745 1.21401 61.8825 0.832386 63.5629 0.832386C65.231 0.832386 66.7329 1.21401 68.0686 1.97727C69.4105 2.73437 70.4692 3.83617 71.2448 5.28267C72.0265 6.72917 72.4173 8.48343 72.4173 10.5455ZM68.3641 10.5455C68.3641 9.20975 68.164 8.08333 67.7639 7.16619C67.37 6.24905 66.8129 5.5535 66.0928 5.07955C65.3726 4.60559 64.5293 4.36861 63.5629 4.36861C62.5966 4.36861 61.7533 4.60559 61.0331 5.07955C60.3129 5.5535 59.7528 6.24905 59.3527 7.16619C58.9588 8.08333 58.7618 9.20975 58.7618 10.5455C58.7618 11.8812 58.9588 13.0076 59.3527 13.9247C59.7528 14.8419 60.3129 15.5374 61.0331 16.0114C61.7533 16.4853 62.5966 16.7223 63.5629 16.7223C64.5293 16.7223 65.3726 16.4853 66.0928 16.0114C66.8129 15.5374 67.37 14.8419 67.7639 13.9247C68.164 13.0076 68.3641 11.8812 68.3641 10.5455Z" fill="black"/>
</svg>
